<svg width="6" height="6" viewBox="0 0 6 6" fill="none" xmlns="http://www.w3.org/2000/svg">
<path d="M5.70663 0.293017C5.62355 0.209945 5.48897 0.209945 5.40591 0.293017L2.9997 2.69922L0.593493 0.293017C0.51042 0.209945 0.37584 0.209945 0.292773 0.293017C0.209706 0.37609 0.209701 0.51067 0.292773 0.593737L2.69898 2.99994L0.292773 5.40615C0.209701 5.48922 0.209701 5.6238 0.292773 5.70687C0.375846 5.78994 0.510426 5.78994 0.593493 5.70687L2.9997 3.30066L5.40591 5.70687C5.48898 5.78994 5.62356 5.78994 5.70663 5.70687C5.78969 5.6238 5.7897 5.48922 5.70663 5.40615L3.30042 2.99994L5.70663 0.593737C5.7897 0.510665 5.7897 0.376085 5.70663 0.293017Z" fill="white"/>
</svg>
